<svg version="1.1" id="Layer_1" xmlns="http://www.w3.org/2000/svg" xmlns:xlink="http://www.w3.org/1999/xlink" x="0px" y="0px"
	 width="100%" viewBox="0 0 234 126" enable-background="new 0 0 234 126" xml:space="preserve">
<path fill="#FDFDFD" opacity="1.000000" stroke="none" 
	d="
M166.000000,127.000000 
	C110.666672,127.000000 55.833340,127.000000 1.000007,127.000000 
	C1.000005,85.000008 1.000005,43.000011 1.000002,1.000013 
	C78.999992,1.000009 156.999985,1.000009 234.999969,1.000004 
	C234.999985,42.999989 234.999985,84.999977 235.000000,126.999985 
	C212.166672,127.000000 189.333328,127.000000 166.000000,127.000000 
M109.515869,113.112862 
	C121.488419,112.830917 133.595337,113.584549 145.405640,112.052185 
	C170.247971,108.828949 187.212097,88.192986 187.344101,62.688023 
	C187.475616,37.278793 170.593048,16.183828 145.774857,13.081773 
	C131.326172,11.275815 116.537117,12.183879 101.900536,11.906521 
	C100.642014,11.882674 99.378403,12.127839 98.278404,12.232673 
	C98.278404,46.023369 98.278404,79.423523 98.278404,113.112869 
	C101.899918,113.112869 105.210609,113.112869 109.515869,113.112862 
M14.182799,32.500206 
	C14.182799,59.242393 14.182799,85.984581 14.182799,112.895111 
	C20.140253,112.895111 25.557884,112.895111 31.556358,112.895111 
	C31.556358,100.319717 31.556358,87.952713 31.556358,75.182549 
	C39.773037,75.182549 47.419655,75.416237 55.047256,75.134720 
	C71.798615,74.516472 84.367592,62.441727 85.659897,46.043594 
	C86.988815,29.181025 77.184807,15.260421 60.030872,13.011988 
	C46.276306,11.209122 32.161285,12.146845 18.205608,11.903818 
	C16.948698,11.881929 15.687258,12.120253 14.183123,12.260569 
	C14.183123,18.897329 14.183123,25.198902 14.182799,32.500206 
M221.204803,96.374733 
	C216.263062,89.296906 204.457993,90.836021 201.740189,99.670868 
	C200.208130,104.651215 202.099609,110.013824 206.368484,112.775131 
	C210.140640,115.215134 215.952774,114.817223 219.371582,111.884926 
	C223.640884,108.223137 224.409317,103.173691 221.204803,96.374733 
z"/>
<path fill="#030303" opacity="1.000000" stroke="none" 
	d="
M109.018585,113.112869 
	C105.210609,113.112869 101.899918,113.112869 98.278404,113.112869 
	C98.278404,79.423523 98.278404,46.023369 98.278404,12.232673 
	C99.378403,12.127839 100.642014,11.882674 101.900536,11.906521 
	C116.537117,12.183879 131.326172,11.275815 145.774857,13.081773 
	C170.593048,16.183828 187.475616,37.278793 187.344101,62.688023 
	C187.212097,88.192986 170.247971,108.828949 145.405640,112.052185 
	C133.595337,113.584549 121.488419,112.830917 109.018585,113.112869 
M115.127235,93.227982 
	C114.939957,95.442886 115.145164,97.041351 118.165115,96.945877 
	C125.148293,96.725105 132.164963,97.163078 139.125168,96.695473 
	C156.596695,95.521675 168.783737,82.547432 169.751129,64.548393 
	C170.742477,46.103542 159.666916,30.920292 142.292374,28.582842 
	C133.523270,27.403105 124.464455,28.376808 115.127075,28.376808 
	C115.127075,49.762291 115.127075,71.020897 115.127235,93.227982 
z"/>
<path fill="#040404" opacity="1.000000" stroke="none" 
	d="
M14.182961,32.000340 
	C14.183123,25.198902 14.183123,18.897329 14.183123,12.260569 
	C15.687258,12.120253 16.948698,11.881929 18.205608,11.903818 
	C32.161285,12.146845 46.276306,11.209122 60.030872,13.011988 
	C77.184807,15.260421 86.988815,29.181025 85.659897,46.043594 
	C84.367592,62.441727 71.798615,74.516472 55.047256,75.134720 
	C47.419655,75.416237 39.773037,75.182549 31.556358,75.182549 
	C31.556358,87.952713 31.556358,100.319717 31.556358,112.895111 
	C25.557884,112.895111 20.140253,112.895111 14.182799,112.895111 
	C14.182799,85.984581 14.182799,59.242393 14.182961,32.000340 
M51.025826,27.306368 
	C44.602898,27.306368 38.179966,27.306368 31.623728,27.306368 
	C31.623728,38.365509 31.623728,48.765854 31.623728,58.986729 
	C39.977890,58.986729 48.115822,59.582558 56.121792,58.810314 
	C63.363808,58.111759 67.763474,52.346859 68.287041,45.088306 
	C69.027786,34.818787 63.914982,29.281715 51.025826,27.306368 
z"/>
<path fill="#060606" opacity="1.000000" stroke="none" 
	d="
M221.422287,96.677505 
	C224.409317,103.173691 223.640884,108.223137 219.371582,111.884926 
	C215.952774,114.817223 210.140640,115.215134 206.368484,112.775131 
	C202.099609,110.013824 200.208130,104.651215 201.740189,99.670868 
	C204.457993,90.836021 216.263062,89.296906 221.422287,96.677505 
z"/>
<path fill="#FCFCFC" opacity="1.000000" stroke="none" 
	d="
M115.127151,92.753738 
	C115.127075,71.020897 115.127075,49.762291 115.127075,28.376808 
	C124.464455,28.376808 133.523270,27.403105 142.292374,28.582842 
	C159.666916,30.920292 170.742477,46.103542 169.751129,64.548393 
	C168.783737,82.547432 156.596695,95.521675 139.125168,96.695473 
	C132.164963,97.163078 125.148293,96.725105 118.165115,96.945877 
	C115.145164,97.041351 114.939957,95.442886 115.127151,92.753738 
z"/>
<path fill="#F7F7F7" opacity="1.000000" stroke="none" 
	d="
M51.474266,27.336212 
	C63.914982,29.281715 69.027786,34.818787 68.287041,45.088306 
	C67.763474,52.346859 63.363808,58.111759 56.121792,58.810314 
	C48.115822,59.582558 39.977890,58.986729 31.623728,58.986729 
	C31.623728,48.765854 31.623728,38.365509 31.623728,27.306368 
	C38.179966,27.306368 44.602898,27.306368 51.474266,27.336212 
z"/>
</svg>